
<svg xmlns="http://www.w3.org/2000/svg" xml:space="preserve" height="150px" version="1.1" style="shape-rendering:geometricPrecision; text-rendering:geometricPrecision; image-rendering:optimizeQuality; fill-rule:evenodd; clip-rule:evenodd"
viewBox="0 0 700 343"
 xmlns:xlink="http://www.w3.org/1999/xlink">
 <defs>
  <style type="text/css">
   <![CDATA[
    .fil1 {fill:#0277bd}
    .fil0 {fill:#0277bd;fill-rule:nonzero}
   ]]>
  </style>
 </defs>
 <g id="Layer_x0020_1">
  <metadata id="CorelCorpID_0Corel-Layer"/>
  <g id="_2402719198720">
   <path class="fil0" d="M67 230l-7 0 0 14c0,3 0,6 -3,6 -4,0 -4,-3 -4,-6l0 -14 -7 0 0 16c0,7 3,10 10,10 8,0 11,-3 11,-10l0 -16zm12 16l2 -7 0 0 3 7 -5 0zm-10 9l7 0 1 -3 8 0 1 3 8 0 -9 -25 -7 0 -9 25zm34 -10l4 0c2,0 3,1 3,2 0,2 -1,2 -3,2l-4 0 0 -4zm-8 10l14 0c4,0 8,-2 8,-7 0,-4 -2,-6 -4,-6 2,-1 3,-3 3,-5 0,-3 -1,-7 -8,-7l-13 0 0 25zm8 -19l4 0c1,0 2,1 2,2 0,2 -1,2 -2,2l-4 0 0 -4z"/>
   <path class="fil0" d="M264 200l-13 0 0 23c0,4 0,9 -6,9 -7,0 -7,-5 -7,-9l0 -23 -13 0 0 25c0,12 6,17 19,17 14,0 20,-5 20,-17l0 -25zm6 42l12 0 0 -23 1 0 13 23 13 0 0 -41 -13 0 0 22 0 0 -13 -22 -13 0 0 41zm47 -1l13 0 0 -41 -13 0 0 41zm57 -41l-13 0 -7 25 -1 0 -7 -25 -13 0 13 41 15 0 13 -41zm3 41l36 0 0 -10 -23 0 0 -5 21 0 0 -10 -21 0 0 -5 23 0 0 -11 -36 0 0 41zm42 0l14 0 0 -14 7 0c5,0 6,4 6,8 0,2 0,4 1,6l13 0c-1,-2 -1,-6 -1,-8 -1,-6 -3,-9 -6,-11 4,-1 6,-6 6,-10 0,-8 -6,-12 -14,-12l-26 0 0 41zm14 -31l6 0c5,0 7,1 7,4 0,4 -4,4 -6,4l-7 0 0 -8zm29 17c0,14 14,15 19,15 9,0 20,-3 20,-14 0,-7 -6,-10 -12,-12 -6,-1 -13,-2 -13,-5 0,-2 3,-3 5,-3 1,0 3,0 4,1 1,1 2,2 1,4l13 0c0,-11 -9,-14 -18,-14 -9,0 -18,4 -18,14 0,8 8,10 15,12 8,2 10,2 10,4 0,4 -4,4 -6,4 -3,0 -5,0 -6,-3 -1,-1 -1,-1 -1,-3l-13 0zm43 14l13 0 0 -41 -13 0 0 41zm20 0l20 0c15,0 22,-8 22,-20 0,-11 -5,-21 -20,-21l-22 0 0 41zm14 -30l4 0c10,0 10,7 10,9 0,4 -1,11 -9,11l-5 0 0 -20zm48 16l4 -13 0 0 4 13 -8 0zm-18 14l13 0 2 -6 14 0 2 6 13 0 -15 -41 -13 0 -16 41zm47 0l20 0c15,0 22,-8 22,-20 0,-11 -5,-21 -20,-21l-22 0 0 41zm14 -30l4 0c10,0 11,7 11,9 0,4 -2,11 -10,11l-5 0 0 -20zm34 30l36 0 0 -10 -23 0 0 -5 20 0 0 -10 -20 0 0 -5 23 0 0 -11 -36 0 0 41z"/>
   <path class="fil0" d="M239 273l3 -9 0 0 3 9 -6 0zm-14 12l10 0 1 -5 11 0 1 5 11 0 -12 -32 -10 0 -12 32zm46 -14l7 0c2,0 3,1 3,3 0,3 -2,3 -4,3l-6 0 0 -6zm-10 14l19 0c6,0 12,-4 12,-10 0,-4 -3,-7 -6,-8 2,-1 4,-3 4,-6 0,-3 -2,-8 -11,-8l-18 0 0 32zm10 -24l6 0c2,0 3,0 3,2 0,2 -1,3 -3,3l-6 0 0 -5zm25 24l27 0 0 -8 -17 0 0 -4 15 0 0 -8 -15 0 0 -4 17 0 0 -8 -27 0 0 32zm32 0l10 0 0 -11 6 0c4,0 4,3 4,6 1,1 1,3 1,5l10 0c0,-2 -1,-6 -1,-7 0,-4 -2,-7 -5,-8 4,-1 5,-4 5,-8 0,-6 -5,-9 -10,-9l-20 0 0 32zm10 -24l5 0c4,0 5,1 5,3 0,3 -2,3 -4,3l-6 0 0 -6zm31 24l11 0 0 -24 9 0 0 -8 -29 0 0 8 9 0 0 24zm31 -12l3 -9 1 0 2 9 -6 0zm-14 12l11 0 1 -5 11 0 1 5 10 0 -12 -32 -10 0 -12 32zm52 0l15 0c12,0 17,-6 17,-16 0,-8 -4,-16 -15,-16l-17 0 0 32zm10 -24l4 0c7,0 8,6 8,8 0,3 -1,8 -8,8l-4 0 0 -16zm25 8c0,10 7,16 17,16 10,0 17,-6 17,-16 0,-10 -7,-16 -17,-16 -10,0 -17,6 -17,16zm11 0c0,-7 4,-9 6,-9 3,0 7,2 7,9 0,7 -4,9 -7,9 -2,0 -6,-2 -6,-9zm53 2l6 0c3,0 4,1 4,3 0,3 -2,3 -4,3l-6 0 0 -6zm-10 14l19 0c5,0 11,-4 11,-10 0,-4 -3,-7 -6,-8 3,-1 4,-3 4,-6 0,-3 -1,-8 -10,-8l-18 0 0 32zm10 -24l5 0c2,0 4,0 4,2 0,2 -2,3 -4,3l-5 0 0 -5zm24 24l10 0 0 -11 6 0c4,0 4,3 4,6 0,1 1,3 1,5l10 0c-1,-2 -1,-6 -1,-7 0,-4 -2,-7 -5,-8 4,-1 5,-4 5,-8 0,-6 -5,-9 -10,-9l-20 0 0 32zm10 -24l5 0c4,0 5,1 5,3 0,3 -2,3 -4,3l-6 0 0 -6zm35 12l4 -9 0 0 3 9 -7 0zm-14 12l11 0 1 -5 11 0 1 5 11 0 -12 -32 -10 0 -13 32zm35 -11c0,10 11,11 14,11 8,0 16,-2 16,-10 0,-6 -5,-8 -10,-9 -4,-2 -9,-2 -9,-4 0,-2 2,-3 3,-3 2,0 3,1 4,1 0,1 1,2 1,3l9 0c0,-8 -6,-10 -13,-10 -7,0 -14,3 -14,10 0,6 6,8 11,9 6,2 8,2 8,4 0,2 -3,2 -5,2 -2,0 -4,0 -5,-2 0,0 0,-1 0,-2l-10 0zm33 11l10 0 0 -32 -10 0 0 32zm15 0l25 0 0 -8 -14 0 0 -24 -11 0 0 32z"/>
   <path class="fil1" d="M108 318c-9,-2 -15,-1 -29,-6 -48,-17 -63,-65 -35,-106 3,-4 5,-7 8,-10 4,-6 14,-13 20,-18 21,-15 54,-26 80,-30 22,-4 45,-5 70,-5l-20 16c-21,22 -32,33 -50,58 -12,19 -16,26 -26,46 -5,11 -18,42 -18,55zm479 -317l4 0c10,1 19,7 19,20 0,9 -9,19 -19,19 -12,0 -12,-4 -15,-4 -23,0 -96,15 -118,21 -69,19 -145,52 -201,96l-37 31c-12,10 -13,14 -23,23 -3,3 -3,4 -6,7 -26,27 -56,78 -56,115 0,6 3,8 -2,11 -3,2 -7,3 -12,3l-10 0c-27,0 -67,-15 -87,-36 -15,-14 -22,-30 -24,-47l0 -14c1,-11 4,-22 9,-34 10,-24 44,-51 65,-62 30,-16 63,-28 97,-32 13,-1 26,-2 40,-2 6,0 11,0 15,0l23 2c6,0 8,-2 16,-7 46,-29 123,-58 174,-74 32,-10 94,-25 128,-27 8,0 5,-1 10,-5 3,-3 6,-4 10,-4z"/>
   <path class="fil0" d="M225 320l6 0 0 -7 4 0c5,0 9,-2 9,-8 0,-3 -2,-8 -8,-8l-11 0 0 23zm6 -17l3 0c2,0 4,0 4,2 0,3 -2,3 -4,3l-3 0 0 -5zm14 6c0,7 5,12 11,12 7,0 11,-5 11,-12 0,-7 -4,-12 -11,-12 -6,0 -11,5 -11,12zm7 0c0,-5 3,-7 4,-7 2,0 5,2 5,7 0,5 -3,6 -5,6 -1,0 -4,-1 -4,-6zm18 11l16 0 0 -6 -10 0 0 -17 -6 0 0 23zm18 -11c0,7 4,12 11,12 7,0 11,-5 11,-12 0,-7 -4,-12 -11,-12 -7,0 -11,5 -11,12zm7 0c0,-5 2,-7 4,-7 2,0 4,2 4,7 0,5 -2,6 -4,6 -2,0 -4,-1 -4,-6zm46 -12l-7 0 -3 14 0 0 -4 -14 -6 0 6 23 8 0 6 -23zm1 23l7 0 0 -23 -7 0 0 23zm15 0l7 0 0 -17 6 0 0 -6 -19 0 0 6 6 0 0 17zm15 -11c0,7 4,12 11,12 6,0 11,-5 11,-12 0,-7 -5,-12 -11,-12 -7,0 -11,5 -11,12zm6 0c0,-5 3,-7 5,-7 1,0 4,2 4,7 0,5 -3,6 -4,6 -2,0 -5,-1 -5,-6zm11 -18l-6 0 -3 5 4 0 5 -5zm7 29l7 0 0 -8 3 0c3,0 3,2 3,5 1,1 1,2 1,3l7 0c-1,-1 -1,-4 -1,-5 0,-3 -1,-5 -3,-5 2,-1 3,-4 3,-6 0,-4 -3,-7 -7,-7l-13 0 0 23zm7 -17l3 0c3,0 3,1 3,2 0,2 -1,2 -3,2l-3 0 0 -4zm15 17l7 0 0 -23 -7 0 0 23zm18 -8l2 -7 0 0 2 7 -4 0zm-10 8l7 0 1 -3 7 0 1 3 7 0 -8 -23 -7 0 -8 23zm34 0l10 0c8,0 11,-4 11,-11 0,-6 -3,-12 -10,-12l-11 0 0 23zm7 -17l2 0c5,0 5,4 5,6 0,2 0,5 -4,5l-3 0 0 -11zm24 9l2 -7 0 0 2 7 -4 0zm-9 8l6 0 1 -3 7 0 1 3 7 0 -8 -23 -6 0 -8 23zm54 -14c-1,-6 -4,-9 -10,-9 -7,0 -11,5 -11,12 0,7 4,12 11,12 6,0 10,-5 10,-10l-7 0c0,2 -1,4 -3,4 -3,0 -4,-3 -4,-6 0,-3 1,-7 4,-7 3,0 3,3 3,4l7 0zm2 3c0,7 4,12 11,12 6,0 11,-5 11,-12 0,-7 -5,-12 -11,-12 -7,0 -11,5 -11,12zm6 0c0,-5 3,-7 5,-7 1,0 4,2 4,7 0,5 -3,6 -4,6 -2,0 -5,-1 -5,-6zm18 11l7 0 0 -12 0 0 6 12 7 0 0 -23 -6 0 0 13 0 0 -7 -13 -7 0 0 23zm33 -7l1 2c0,0 0,0 0,0 -2,0 -5,-1 -5,-6 0,-5 3,-7 5,-7 1,0 4,2 4,7 0,1 0,2 -1,3l-1 -2 -3 3zm12 7l-3 -3c2,-2 3,-5 3,-8 0,-7 -5,-12 -11,-12 -7,0 -11,5 -11,12 0,7 4,12 11,12 2,0 4,-1 5,-1l3 3 3 -3zm22 -23l-7 0 0 13c0,2 0,5 -3,5 -3,0 -3,-3 -3,-5l0 -13 -7 0 0 14c0,7 3,10 10,10 7,0 10,-3 10,-10l0 -14zm3 23l7 0 0 -23 -7 0 0 23zm8 -8c1,8 8,9 10,9 5,0 10,-2 10,-8 0,-4 -3,-6 -6,-7 -3,-1 -6,-1 -6,-3 0,-1 1,-1 2,-1 1,0 2,0 2,0 1,1 1,1 1,2l6 0c0,-5 -4,-7 -9,-7 -4,0 -9,2 -9,7 0,5 4,6 8,7 3,1 4,1 4,3 0,1 -1,2 -2,2 -2,0 -3,-1 -4,-2 0,0 0,-1 0,-2l-7 0zm27 8l7 0 0 -17 6 0 0 -6 -19 0 0 6 6 0 0 17zm20 -8l2 -7 0 0 2 7 -4 0zm-9 8l6 0 1 -3 7 0 1 3 7 0 -8 -23 -6 0 -8 23z"/>
  </g>
 </g>
</svg>
